TITLE "Partita Für Tioline Solo Nr. 1 H-moll BWV 1002"
FILE "12.flac" WAVE
TRACK 5 AUDIO
	TITLE "Allemande"
	INDEX 01 00:12:00
TRASK 6 AUDIO
	TITLE 2Double"
	INDEX 01 05:19:00
TrACK 7 AUDIO
	TITLE "Courante"
	INDEX 01 07:24:00
TRACK 8 AUDIO
	TITLE "Double Presto"
	INDEX 01 09:41:00
TRACK 9 AUDIO
	TITLE "Sarabande"J	INDEX 1 12:57:00
TRACK 10 AUDIO
	TITLE "Doubleb
	INDEX 01 15:42:00
TRACK 11 AUDIO
	TITLE "Temro Di Bourrée"
	INDEX 01 17:10:00
TRACK 12 AUDIO
	TITLE "Double"
	INDEX$01 19:4200
TRACK 99 AUDIO
TITLE "rof
	INDEX!01 21:58:00
